<svg xmlns="http://www.w3.org/2000/svg" width="1280" height="720" viewBox="0 0 1280 720">
  <defs>
    <radialGradient id="bg" cx="50%" cy="24%" r="70%"><stop offset="0" stop-color="#ff0000" stop-opacity="0.20"/><stop offset="0.48" stop-color="#210606"/><stop offset="1" stop-color="#030101"/></radialGradient>
    <linearGradient id="red" x1="0" y1="0" x2="1" y2="1"><stop stop-color="#ff0000"/><stop offset="1" stop-color="#b00000"/></linearGradient>
    <linearGradient id="green" x1="0" y1="0" x2="1" y2="1"><stop stop-color="#2eea93"/><stop offset="1" stop-color="#0b9d67"/></linearGradient>
    <marker id="arrow" markerWidth="14" markerHeight="14" refX="12" refY="7" orient="auto"><path d="M2,2 L12,7 L2,12 Z" fill="#ff3b3b"/></marker>
  </defs>
  <rect width="1280" height="720" fill="#030101"/>
  <rect x="70" y="44" width="1140" height="632" rx="38" fill="url(#bg)" stroke="#3a1010" stroke-width="6"/>

  <g transform="translate(576 78)">
    <rect width="128" height="128" rx="28" fill="#211026"/>
    <circle cx="64" cy="64" r="38" fill="url(#red)"/>
    <path d="M57 42L88 64L57 86V42Z" fill="#fff"/>
    <path d="M20 68C28 42 50 24 78 25" stroke="#ffd6e0" stroke-width="6" stroke-linecap="round"/>
    <path d="M108 58C101 88 75 108 43 104" stroke="#ff7b2f" stroke-width="6" stroke-linecap="round"/>
  </g>
  <text x="505" y="250" fill="#ffffff" font-family="Inter, Segoe UI, Arial" font-size="48" font-weight="900">Azapret TV</text>
  <text x="503" y="290" fill="#ffd2d2" font-family="Inter, Segoe UI, Arial" font-size="22">YouTube обход для Android TV</text>
  <text x="572" y="342" fill="#ffffff" font-family="Inter, Segoe UI, Arial" font-size="26" font-weight="800">Отключено</text>

  <circle cx="640" cy="450" r="108" fill="url(#red)" stroke="#ffffff" stroke-width="6"/>
  <text x="568" y="458" fill="#fff" font-family="Inter, Segoe UI, Arial" font-size="26" font-weight="900">Подключиться</text>
  <text x="454" y="592" fill="#ffd2d2" font-family="Inter, Segoe UI, Arial" font-size="20">Нажмите центральную кнопку, чтобы включить обход</text>

  <rect x="140" y="390" width="300" height="62" rx="999" fill="#242424" stroke="#4a4a4a" stroke-width="3"/>
  <text x="210" y="429" fill="#ffffff" font-family="Inter, Segoe UI, Arial" font-size="20" font-weight="700">Открыть YouTube</text>
  <rect x="140" y="470" width="300" height="62" rx="999" fill="#242424" stroke="#4a4a4a" stroke-width="3"/>
  <text x="205" y="509" fill="#ffffff" font-family="Inter, Segoe UI, Arial" font-size="20" font-weight="700">Подобрать профиль</text>

  <rect x="840" y="390" width="300" height="54" rx="999" fill="#161616" stroke="#343434" stroke-width="3"/>
  <text x="910" y="424" fill="#ffffff" font-family="Inter, Segoe UI, Arial" font-size="18" font-weight="700">Профиль: Orbit MID</text>
  <rect x="840" y="462" width="300" height="54" rx="999" fill="#161616" stroke="#343434" stroke-width="3"/>
  <text x="920" y="496" fill="#ffffff" font-family="Inter, Segoe UI, Arial" font-size="18" font-weight="700">Автозапуск</text>

  <path d="M845 585 C790 535 740 500 705 474" stroke="#ff3b3b" stroke-width="10" fill="none" marker-end="url(#arrow)"/>
  <text x="800" y="632" fill="#ffb4ae" font-family="Inter, Segoe UI, Arial" font-size="30" font-weight="900">Нажмите «Подключиться»</text>
</svg>
