<svg xmlns="http://www.w3.org/2000/svg" width="1280" height="720" viewBox="0 0 1280 720">
  <defs>
    <linearGradient id="bg" x1="0" y1="0" x2="1" y2="1"><stop offset="0" stop-color="#020617"/><stop offset="1" stop-color="#172554"/></linearGradient>
    <linearGradient id="btn" x1="0" y1="0" x2="1" y2="0"><stop offset="0" stop-color="#22c55e"/><stop offset="1" stop-color="#06b6d4"/></linearGradient>
    <marker id="arrow" markerWidth="12" markerHeight="12" refX="10" refY="6" orient="auto"><path d="M2,2 L10,6 L2,10 Z" fill="#ff3b30"/></marker>
  </defs>
  <rect width="1280" height="720" fill="url(#bg)"/>
  <rect x="74" y="54" width="1132" height="612" rx="36" fill="#07111f" stroke="#1d4ed8" stroke-opacity="0.55" stroke-width="6"/>
  <circle cx="170" cy="154" r="48" fill="#0ea5e9"/>
  <path d="M153 154 h34 M170 137 v34" stroke="#fff" stroke-width="9" stroke-linecap="round"/>
  <text x="240" y="145" fill="#e0f2fe" font-family="Segoe UI, Arial" font-size="42" font-weight="800">Azapret TV</text>
  <text x="242" y="188" fill="#93c5fd" font-family="Segoe UI, Arial" font-size="24">Локальный обход для Android TV</text>
  <rect x="160" y="260" width="470" height="110" rx="28" fill="url(#btn)"/>
  <text x="242" y="330" fill="#ffffff" font-family="Segoe UI, Arial" font-size="36" font-weight="800">Включить обход</text>
  <rect x="160" y="404" width="470" height="86" rx="24" fill="#111827" stroke="#334155" stroke-width="3"/>
  <text x="238" y="458" fill="#cbd5e1" font-family="Segoe UI, Arial" font-size="28" font-weight="700">Подобрать профиль</text>
  <rect x="710" y="260" width="380" height="230" rx="28" fill="#0f172a" stroke="#1e3a8a"/>
  <text x="748" y="320" fill="#bfdbfe" font-family="Segoe UI, Arial" font-size="28" font-weight="700">Статус</text>
  <text x="748" y="372" fill="#86efac" font-family="Segoe UI, Arial" font-size="30" font-weight="800">Готов к запуску</text>
  <text x="748" y="424" fill="#94a3b8" font-family="Segoe UI, Arial" font-size="22">Нажмите основную кнопку</text>
  <path d="M760 545 C665 508 565 430 470 360" stroke="#ff3b30" stroke-width="10" fill="none" marker-end="url(#arrow)"/>
  <text x="720" y="590" fill="#ffb4ae" font-family="Segoe UI, Arial" font-size="32" font-weight="800">Нажмите «Включить обход»</text>
</svg>
