<svg xmlns="http://www.w3.org/2000/svg" width="1280" height="720" viewBox="0 0 1280 720">
  <defs>
    <linearGradient id="bg" x1="0" y1="0" x2="1" y2="1"><stop offset="0" stop-color="#07111f"/><stop offset="1" stop-color="#102a43"/></linearGradient>
    <filter id="shadow"><feDropShadow dx="0" dy="18" stdDeviation="22" flood-opacity="0.35"/></filter>
    <marker id="arrow" markerWidth="12" markerHeight="12" refX="10" refY="6" orient="auto"><path d="M2,2 L10,6 L2,10 Z" fill="#ff3b30"/></marker>
  </defs>
  <rect width="1280" height="720" fill="url(#bg)"/>
  <rect x="86" y="56" width="1108" height="608" rx="34" fill="#050b14" stroke="#26384d" stroke-width="8" filter="url(#shadow)"/>
  <rect x="130" y="104" width="1020" height="520" rx="18" fill="#0f172a"/>
  <text x="170" y="160" fill="#e5f0ff" font-family="Segoe UI, Arial" font-size="36" font-weight="700">Файловый менеджер Android TV</text>
  <rect x="170" y="216" width="250" height="300" rx="20" fill="#16243a" stroke="#334863"/>
  <text x="218" y="290" fill="#93c5fd" font-family="Segoe UI, Arial" font-size="26">USB</text>
  <text x="214" y="348" fill="#dbeafe" font-family="Segoe UI, Arial" font-size="22">Флешка</text>
  <rect x="486" y="216" width="300" height="300" rx="20" fill="#1e293b" stroke="#38bdf8" stroke-width="4"/>
  <text x="535" y="306" fill="#ffffff" font-family="Segoe UI, Arial" font-size="30" font-weight="700">AzapretTV.apk</text>
  <text x="545" y="360" fill="#93c5fd" font-family="Segoe UI, Arial" font-size="22">Нажмите OK на пульте</text>
  <rect x="850" y="246" width="230" height="82" rx="18" fill="#2563eb"/>
  <text x="910" y="298" fill="#ffffff" font-family="Segoe UI, Arial" font-size="28" font-weight="700">Установить</text>
  <path d="M1005 430 C1040 390 1040 350 990 320" stroke="#ff3b30" stroke-width="10" fill="none" marker-end="url(#arrow)"/>
  <text x="800" y="470" fill="#ffb4ae" font-family="Segoe UI, Arial" font-size="30" font-weight="700">1. Выберите APK</text>
  <text x="800" y="512" fill="#ffb4ae" font-family="Segoe UI, Arial" font-size="30" font-weight="700">2. Нажмите «Установить»</text>
</svg>
