<svg xmlns="http://www.w3.org/2000/svg" width="1280" height="720" viewBox="0 0 1280 720">
  <defs><linearGradient id="bg" x1="0" y1="0" x2="1" y2="1"><stop offset="0" stop-color="#08111f"/><stop offset="1" stop-color="#1e1b4b"/></linearGradient><marker id="arrow" markerWidth="12" markerHeight="12" refX="10" refY="6" orient="auto"><path d="M2,2 L10,6 L2,10 Z" fill="#ff3b30"/></marker></defs>
  <rect width="1280" height="720" fill="url(#bg)"/>
  <rect x="82" y="54" width="1116" height="612" rx="34" fill="#07111f" stroke="#334155" stroke-width="5"/>
  <text x="150" y="138" fill="#e5f0ff" font-family="Segoe UI, Arial" font-size="40" font-weight="800">Подбор профиля</text>
  <text x="150" y="184" fill="#93c5fd" font-family="Segoe UI, Arial" font-size="24">Если обход не заработал сразу, запустите проверку профилей.</text>
  <rect x="150" y="245" width="360" height="76" rx="20" fill="#0f172a" stroke="#334155" stroke-width="3"/>
  <text x="190" y="293" fill="#cbd5e1" font-family="Segoe UI, Arial" font-size="26" font-weight="700">TPWS / Orbit</text>
  <rect x="150" y="345" width="360" height="76" rx="20" fill="#0f172a" stroke="#334155" stroke-width="3"/>
  <text x="190" y="393" fill="#cbd5e1" font-family="Segoe UI, Arial" font-size="26" font-weight="700">DPI profile</text>
  <rect x="150" y="445" width="360" height="76" rx="20" fill="#052e16" stroke="#22c55e" stroke-width="5"/>
  <text x="190" y="493" fill="#bbf7d0" font-family="Segoe UI, Arial" font-size="26" font-weight="800">Рекомендуемый профиль</text>
  <rect x="660" y="280" width="360" height="104" rx="28" fill="#2563eb"/>
  <text x="725" y="346" fill="#fff" font-family="Segoe UI, Arial" font-size="32" font-weight="800">Подобрать профиль</text>
  <rect x="660" y="420" width="360" height="92" rx="26" fill="#16a34a"/>
  <text x="755" y="477" fill="#fff" font-family="Segoe UI, Arial" font-size="30" font-weight="800">Включить</text>
  <path d="M1040 250 C1015 290 985 315 955 330" stroke="#ff3b30" stroke-width="10" fill="none" marker-end="url(#arrow)"/>
  <text x="675" y="590" fill="#ffb4ae" font-family="Segoe UI, Arial" font-size="31" font-weight="800">1. Подобрать профиль  →  2. Включить</text>
</svg>
