<svg xmlns="http://www.w3.org/2000/svg" width="1280" height="720" viewBox="0 0 1280 720">
  <defs>
    <radialGradient id="bg" cx="50%" cy="24%" r="70%"><stop offset="0" stop-color="#ff0000" stop-opacity="0.20"/><stop offset="0.48" stop-color="#210606"/><stop offset="1" stop-color="#030101"/></radialGradient>
    <linearGradient id="red" x1="0" y1="0" x2="1" y2="1"><stop stop-color="#ff0000"/><stop offset="1" stop-color="#b00000"/></linearGradient>
    <linearGradient id="green" x1="0" y1="0" x2="1" y2="1"><stop stop-color="#2eea93"/><stop offset="1" stop-color="#0b9d67"/></linearGradient>
    <marker id="arrow" markerWidth="9" markerHeight="9" refX="8" refY="4.5" orient="auto"><path d="M1,1 L8,4.5 L1,8 Z" fill="#ff3b3b"/></marker>
  </defs>
  <rect width="1280" height="720" fill="#030101"/>
  <rect x="70" y="44" width="1140" height="632" rx="38" fill="url(#bg)" stroke="#3a1010" stroke-width="6"/>
  <g transform="translate(576 66)">
    <rect width="128" height="128" rx="28" fill="#211026"/>
    <circle cx="64" cy="64" r="38" fill="url(#red)"/>
    <path d="M57 42L88 64L57 86V42Z" fill="#fff"/>
    <path d="M20 68C28 42 50 24 78 25" stroke="#ffd6e0" stroke-width="6" stroke-linecap="round"/>
    <path d="M108 58C101 88 75 108 43 104" stroke="#ff7b2f" stroke-width="6" stroke-linecap="round"/>
  </g>
  <text x="505" y="238" fill="#ffffff" font-family="Inter, Segoe UI, Arial" font-size="48" font-weight="900">Azapret TV</text>
  <text x="503" y="278" fill="#ffd2d2" font-family="Inter, Segoe UI, Arial" font-size="22">YouTube обход для Android TV</text>
  <text x="572" y="330" fill="#ffffff" font-family="Inter, Segoe UI, Arial" font-size="26" font-weight="800">Подключено</text>
  <circle cx="640" cy="438" r="108" fill="url(#green)" stroke="#ffffff" stroke-width="6"/>
  <text x="572" y="446" fill="#fff" font-family="Inter, Segoe UI, Arial" font-size="26" font-weight="900">Отключиться</text>
  <text x="430" y="580" fill="#ffd2d2" font-family="Inter, Segoe UI, Arial" font-size="20">Автостарт включает обход после старта телевизора</text>
  <rect x="140" y="370" width="300" height="62" rx="999" fill="#242424" stroke="#4a4a4a" stroke-width="3"/>
  <text x="210" y="409" fill="#ffffff" font-family="Inter, Segoe UI, Arial" font-size="20" font-weight="700">Открыть YouTube</text>
  <rect x="140" y="450" width="300" height="62" rx="999" fill="#242424" stroke="#4a4a4a" stroke-width="3"/>
  <text x="205" y="489" fill="#ffffff" font-family="Inter, Segoe UI, Arial" font-size="20" font-weight="700">Подобрать профиль</text>
  <rect x="840" y="358" width="300" height="54" rx="999" fill="#161616" stroke="#343434" stroke-width="3"/>
  <text x="910" y="392" fill="#ffffff" font-family="Inter, Segoe UI, Arial" font-size="18" font-weight="700">Профиль: Orbit MID</text>
  <rect x="840" y="430" width="300" height="54" rx="999" fill="#161616" stroke="#343434" stroke-width="3"/>
  <text x="892" y="464" fill="#ffffff" font-family="Inter, Segoe UI, Arial" font-size="18" font-weight="700">Показать профили тестеров</text>
  <rect x="840" y="502" width="300" height="54" rx="999" fill="#242424" stroke="#ffffff" stroke-width="4"/>
  <text x="944" y="536" fill="#ffffff" font-family="Inter, Segoe UI, Arial" font-size="19" font-weight="900">Автостарт</text>
  <rect x="840" y="574" width="300" height="54" rx="999" fill="#161616" stroke="#343434" stroke-width="3"/>
  <text x="964" y="608" fill="#ffffff" font-family="Inter, Segoe UI, Arial" font-size="18" font-weight="700">Журнал</text>
  <path d="M1138 650 C1090 614 1040 575 1000 550" stroke="#ff3b3b" stroke-width="5" fill="none" marker-end="url(#arrow)"/>
  <text x="890" y="682" fill="#ffb4ae" font-family="Inter, Segoe UI, Arial" font-size="22" font-weight="800">Включите «Автостарт»</text>
</svg>
