<svg xmlns="http://www.w3.org/2000/svg" width="1280" height="720" viewBox="0 0 1280 720">
  <defs>
    <radialGradient id="pulse" cx="50%" cy="24%" r="60%"><stop offset="0" stop-color="#ff0000" stop-opacity="0.22"/><stop offset="0.54" stop-color="#210606"/><stop offset="1" stop-color="#030101"/></radialGradient>
    <linearGradient id="red" x1="0" y1="0" x2="1" y2="1"><stop stop-color="#ff0000"/><stop offset="1" stop-color="#b00000"/></linearGradient>
    <marker id="arrow" markerWidth="14" markerHeight="14" refX="12" refY="7" orient="auto"><path d="M2,2 L12,7 L2,12 Z" fill="#ff3b3b"/></marker>
    <filter id="shadow"><feDropShadow dx="0" dy="22" stdDeviation="26" flood-opacity="0.45"/></filter>
  </defs>
  <rect width="1280" height="720" fill="#050101"/>
  <rect x="72" y="48" width="1136" height="624" rx="36" fill="url(#pulse)" stroke="#3a1010" stroke-width="6" filter="url(#shadow)"/>
  <rect x="130" y="104" width="1020" height="520" rx="28" fill="#0f0505" stroke="#331010"/>

  <text x="166" y="160" fill="#ffffff" font-family="Inter, Segoe UI, Arial" font-size="38" font-weight="800">Установка Azapret TV</text>
  <text x="166" y="198" fill="#ffd2d2" font-family="Inter, Segoe UI, Arial" font-size="20">Откройте APK на флешке и подтвердите установку</text>

  <rect x="166" y="244" width="240" height="250" rx="22" fill="#161616" stroke="#343434" stroke-width="3"/>
  <text x="224" y="307" fill="#ffd2d2" font-family="Inter, Segoe UI, Arial" font-size="26" font-weight="700">USB</text>
  <text x="205" y="350" fill="#9ca3af" font-family="Inter, Segoe UI, Arial" font-size="20">Флешка</text>

  <rect x="478" y="230" width="334" height="280" rx="26" fill="#242424" stroke="#ffffff" stroke-width="4"/>
  <rect x="590" y="264" width="104" height="104" rx="24" fill="#211026"/>
  <circle cx="642" cy="316" r="34" fill="url(#red)"/>
  <path d="M634 296L662 316L634 336V296Z" fill="#fff"/>
  <text x="535" y="418" fill="#ffffff" font-family="Inter, Segoe UI, Arial" font-size="31" font-weight="800">AzapretTV.apk</text>
  <text x="548" y="456" fill="#ffd2d2" font-family="Inter, Segoe UI, Arial" font-size="20">Выберите файл и нажмите OK</text>

  <rect x="870" y="300" width="220" height="76" rx="999" fill="url(#red)" stroke="#ffffff" stroke-width="4"/>
  <text x="922" y="348" fill="#ffffff" font-family="Inter, Segoe UI, Arial" font-size="28" font-weight="800">Установить</text>
  <path d="M1054 474 C1040 420 1020 378 1000 356" stroke="#ff3b3b" stroke-width="10" fill="none" marker-end="url(#arrow)"/>
  <text x="782" y="548" fill="#ffb4ae" font-family="Inter, Segoe UI, Arial" font-size="30" font-weight="800">Нажмите «Установить»</text>
</svg>
